<svg xmlns="http://www.w3.org/2000/svg" width="64" height="48" viewBox="0 0 64 48">
  <g id="Group_35693" data-name="Group 35693" transform="translate(-1194.314 -733.724)">
    <rect id="Rectangle_3556" data-name="Rectangle 3556" width="64" height="48" transform="translate(1194.314 733.724)" fill="none"/>
    <path id="noun-music-4547935" d="M179.421,52.52a5.65,5.65,0,0,0-5.238-.578L161.81,56.892A5.63,5.63,0,0,0,158.2,62.15V79.988a7.611,7.611,0,0,0-4.64-1.547,7.734,7.734,0,1,0,7.733,7.733V70.728l17.528-7.011v8.022a7.609,7.609,0,0,0-4.64-1.547,7.733,7.733,0,1,0,7.733,7.733V57.3a5.63,5.63,0,0,0-2.5-4.784Zm-25.86,38.295a4.639,4.639,0,1,1,3.281-1.359A4.64,4.64,0,0,1,153.561,90.815Zm7.733-28.664a2.579,2.579,0,0,1,1.629-2.392L175.3,54.809a2.586,2.586,0,0,1,3.526,2.33v3.238l-17.528,7.011Zm12.889,20.416a4.64,4.64,0,1,1,3.281-1.359A4.641,4.641,0,0,1,174.184,82.566Z" transform="translate(1062.441 684.996)" fill="#fff" stroke="#fff" stroke-width="1"/>
  </g>
</svg>
