<svg xmlns="http://www.w3.org/2000/svg" width="24" height="24" viewBox="0 0 24 24">
  <g id="Group_1094" data-name="Group 1094" transform="translate(-1049.374 -694.971)">
    <rect id="Rectangle_3308" data-name="Rectangle 3308" width="24" height="24" transform="translate(1049.374 694.97)" fill="none"/>
    <path id="Icon_awesome-linkedin" data-name="Icon awesome-linkedin" d="M22.052,2.25H1.691A1.7,1.7,0,0,0,0,3.962V24.286A1.7,1.7,0,0,0,1.691,26H22.052a1.708,1.708,0,0,0,1.7-1.712V3.962A1.708,1.708,0,0,0,22.052,2.25ZM7.177,22.605H3.658V11.272H7.183V22.605ZM5.418,9.724A2.041,2.041,0,1,1,7.458,7.683,2.042,2.042,0,0,1,5.418,9.724ZM20.371,22.605h-3.52V17.093c0-1.315-.027-3.006-1.829-3.006-1.834,0-2.115,1.431-2.115,2.91v5.608H9.388V11.272h3.377V12.82h.048a3.707,3.707,0,0,1,3.334-1.829c3.562,0,4.225,2.348,4.225,5.4Z" transform="translate(1049.5 692.846)" fill="#fff"/>
  </g>
</svg>
