<svg xmlns="http://www.w3.org/2000/svg" width="24" height="24" viewBox="0 0 24 24">
  <g id="Group_1093" data-name="Group 1093" transform="translate(-1049.374 -645.744)">
    <rect id="Rectangle_3307" data-name="Rectangle 3307" width="24" height="24" transform="translate(1049.374 645.743)" fill="none"/>
    <path id="Icon_awesome-facebook-square" data-name="Icon awesome-facebook-square" d="M21.2,2.25H2.544A2.544,2.544,0,0,0,0,4.794V23.454A2.544,2.544,0,0,0,2.544,26H9.82V17.924H6.48v-3.8H9.82v-2.9c0-3.295,1.961-5.114,4.965-5.114a20.232,20.232,0,0,1,2.943.257V9.6H16.071a1.9,1.9,0,0,0-2.143,2.053v2.468h3.646l-.583,3.8H13.928V26H21.2a2.544,2.544,0,0,0,2.544-2.544V4.794A2.544,2.544,0,0,0,21.2,2.25Z" transform="translate(1049.5 643.619)" fill="#fff"/>
  </g>
</svg>
