<svg xmlns="http://www.w3.org/2000/svg" width="35.892" height="35.894" viewBox="0 0 35.892 35.894">
  <g id="Group_35773" data-name="Group 35773" transform="translate(-542.876 -5245.103)" opacity="0.7">
    <path id="Subtraction_11" data-name="Subtraction 11" d="M-10136.98,3802.443a17.831,17.831,0,0,1-12.691-5.256,17.828,17.828,0,0,1-5.256-12.691,17.827,17.827,0,0,1,5.256-12.691,17.829,17.829,0,0,1,12.691-5.256,17.826,17.826,0,0,1,12.69,5.256,17.835,17.835,0,0,1,5.254,12.691,17.835,17.835,0,0,1-5.254,12.691A17.829,17.829,0,0,1-10136.98,3802.443Zm3.249-24.446a1,1,0,0,0-1,1v12a1,1,0,0,0,1,1h3a1,1,0,0,0,1-1v-12a1,1,0,0,0-1-1Zm-10,0a1,1,0,0,0-1,1v12a1,1,0,0,0,1,1h3a1,1,0,0,0,1-1v-12a1,1,0,0,0-1-1Z" transform="translate(10697.804 1478.554)" fill="#fff"/>
  </g>
</svg>
