<svg xmlns="http://www.w3.org/2000/svg" width="64" height="48" viewBox="0 0 64 48">
  <g id="Group_35694" data-name="Group 35694" transform="translate(-1017.579 -733.724)">
    <rect id="Rectangle_3557" data-name="Rectangle 3557" width="64" height="48" transform="translate(1017.579 733.724)" fill="none"/>
    <g id="noun-book-3888586" transform="translate(1024.957 738.95)">
      <path id="Path_37011" data-name="Path 37011" d="M25.224,58.755q.058-.025.115-.055l3.949-2.106a14.587,14.587,0,0,1,13.729,0,4.227,4.227,0,0,0,6.216-3.73V28.412a4.616,4.616,0,0,0-2.444-4.073l-1.222-.652a20.005,20.005,0,0,0-18.829,0l-2.127,1.134-2.127-1.134a20.005,20.005,0,0,0-18.829,0l-1.222.652A4.616,4.616,0,0,0-.011,28.412V52.863A4.227,4.227,0,0,0,6.2,56.593a14.587,14.587,0,0,1,13.729,0L23.883,58.7m2.267-31.21V54.778l1.689-.9a17.665,17.665,0,0,1,16.626,0,1.149,1.149,0,0,0,1.689-1.014V28.412a1.539,1.539,0,0,0-.815-1.358L44.118,26.4a16.927,16.927,0,0,0-15.932,0Zm-3.078,0L21.035,26.4A16.927,16.927,0,0,0,5.1,26.4l-1.222.652a1.539,1.539,0,0,0-.815,1.358V52.864a1.149,1.149,0,0,0,1.689,1.014,17.665,17.665,0,0,1,16.626,0l1.689.9Z" transform="translate(0.011 -21.334)" fill="#fff" stroke="#fff" stroke-width="1"/>
      <path id="Path_37012" data-name="Path 37012" d="M339.71,552.5a1.538,1.538,0,0,0,1.337.054Z" transform="translate(-315.811 -515.133)" fill="#fff" stroke="#fff" stroke-width="1"/>
    </g>
  </g>
</svg>
