<svg xmlns="http://www.w3.org/2000/svg" width="24" height="24" viewBox="0 0 24 24">
  <g id="Group_1095" data-name="Group 1095" transform="translate(-1049.374 -744.29)">
    <rect id="Rectangle_3309" data-name="Rectangle 3309" width="24" height="24" transform="translate(1049.374 744.29)" fill="none"/>
    <path id="Icon_awesome-twitter" data-name="Icon awesome-twitter" d="M21.307,8.188c.015.211.015.422.015.633A13.753,13.753,0,0,1,7.474,22.669,13.754,13.754,0,0,1,0,20.484a10.069,10.069,0,0,0,1.175.06,9.747,9.747,0,0,0,6.043-2.079,4.876,4.876,0,0,1-4.551-3.375,6.138,6.138,0,0,0,.919.075A5.148,5.148,0,0,0,4.867,15a4.868,4.868,0,0,1-3.9-4.777v-.06a4.9,4.9,0,0,0,2.2.618A4.874,4.874,0,0,1,1.657,4.27,13.835,13.835,0,0,0,11.693,9.363a5.494,5.494,0,0,1-.121-1.115A4.872,4.872,0,0,1,20,4.918a9.583,9.583,0,0,0,3.089-1.175,4.854,4.854,0,0,1-2.14,2.682,9.757,9.757,0,0,0,2.8-.753,10.462,10.462,0,0,1-2.441,2.516Z" transform="translate(1049.5 743.265)" fill="#fff"/>
  </g>
</svg>
