<svg xmlns="http://www.w3.org/2000/svg" width="64" height="48" viewBox="0 0 64 48">
  <g id="Group_35692" data-name="Group 35692" transform="translate(-1373.741 -733.724)">
    <rect id="Rectangle_3555" data-name="Rectangle 3555" width="64" height="48" transform="translate(1373.741 733.724)" fill="none"/>
    <path id="Path_37012" data-name="Path 37012" d="M129.77,106.4a9.39,9.39,0,0,0-9.37,9.37v19.988a9.39,9.39,0,0,0,9.37,9.37h32.481a9.39,9.39,0,0,0,9.37-9.37V115.77a9.39,9.39,0,0,0-9.37-9.37Zm0,3.748h32.481a5.569,5.569,0,0,1,5.622,5.622v19.988a5.569,5.569,0,0,1-5.622,5.622H129.77a5.569,5.569,0,0,1-5.622-5.622V115.77A5.569,5.569,0,0,1,129.77,110.148Zm10.678,5.622a1.874,1.874,0,0,0-1.932,1.874v16.241h0a1.879,1.879,0,0,0,2.772,1.659l14.991-8.12h0a1.874,1.874,0,0,0,0-3.3L141.287,116h0a1.871,1.871,0,0,0-.839-.234Zm1.815,5.036,9.174,4.958-9.174,4.978Z" transform="translate(1259.731 631.96)" fill="#fff"/>
  </g>
</svg>
