<svg xmlns="http://www.w3.org/2000/svg" width="22.785" height="22.784" viewBox="0 0 22.785 22.784">
  <g id="Group_1096" data-name="Group 1096" transform="translate(-1047.916 -792.261)">
    <rect id="Rectangle_3310" data-name="Rectangle 3310" width="21" height="21" transform="translate(1048.809 793.154)" fill="none"/>
    <g id="Icon_feather-instagram" data-name="Icon feather-instagram" transform="translate(1049.416 793.761)">
      <path id="Path_1695" data-name="Path 1695" d="M7.946,3h9.892a4.946,4.946,0,0,1,4.946,4.946v9.892a4.946,4.946,0,0,1-4.946,4.946H7.946A4.946,4.946,0,0,1,3,17.838V7.946A4.946,4.946,0,0,1,7.946,3Z" transform="translate(-3 -3)" fill="none" stroke="#fff" stroke-linecap="round" stroke-linejoin="round" stroke-width="3"/>
      <path id="Path_1696" data-name="Path 1696" d="M19.974,15.328a3.976,3.976,0,1,1-3.35-3.35,3.976,3.976,0,0,1,3.35,3.35Z" transform="translate(-6.106 -6.061)" fill="none" stroke="#fff" stroke-linecap="round" stroke-linejoin="round" stroke-width="3"/>
      <path id="Path_1697" data-name="Path 1697" d="M26.25,9.75h0" transform="translate(-10.917 -5.298)" fill="none" stroke="#fff" stroke-linecap="round" stroke-linejoin="round" stroke-width="3"/>
    </g>
  </g>
</svg>
