<svg xmlns="http://www.w3.org/2000/svg" width="28.123" height="21.097" viewBox="0 0 28.123 21.097">
  <path id="Icon_ionic-logo-youtube" data-name="Icon ionic-logo-youtube" d="M27.94,9.159A4.27,4.27,0,0,0,23.875,4.7c-3.043-.143-6.147-.2-9.317-.2h-.989c-3.164,0-6.274.055-9.317.2A4.28,4.28,0,0,0,.192,9.169c-.137,1.956-.2,3.911-.192,5.867s.055,3.911.187,5.873a4.285,4.285,0,0,0,4.06,4.477c3.2.148,6.477.214,9.811.209q5.01.016,9.811-.209a4.285,4.285,0,0,0,4.065-4.477c.132-1.961.192-3.917.187-5.878Q28.138,12.1,27.94,9.159ZM11.371,20.426V9.631l7.966,5.395Z" transform="translate(0 -4.5)" fill="#fff"/>
</svg>
