<svg xmlns="http://www.w3.org/2000/svg" width="14.553" height="10.671" viewBox="0 0 14.553 10.671">
  <path id="Icon_awesome-arrow-circle-right" data-name="Icon awesome-arrow-circle-right" d="M12.03,8.761,14.6,11.226H4.567a.815.815,0,0,0-.817.817v.545a.815.815,0,0,0,.817.817H14.6L12.03,15.871a.818.818,0,0,0-.014,1.168l.375.371a.814.814,0,0,0,1.154,0l4.518-4.515a.814.814,0,0,0,0-1.154L13.545,7.219a.814.814,0,0,0-1.154,0l-.375.371A.822.822,0,0,0,12.03,8.761Z" transform="translate(-3.75 -6.979)" fill="#ffa000"/>
</svg>
