<svg xmlns="http://www.w3.org/2000/svg" width="32" height="32" viewBox="0 0 32 32">
  <path id="Path_36851" data-name="Path 36851" d="M16,0A16,16,0,1,0,32,16,16,16,0,0,0,16,0Zm7.306,12.475q.011.237.011.474A10.377,10.377,0,0,1,12.867,23.4h0a10.394,10.394,0,0,1-5.629-1.649,7.47,7.47,0,0,0,.876.051,7.368,7.368,0,0,0,4.561-1.572,3.678,3.678,0,0,1-3.43-2.552,3.66,3.66,0,0,0,1.658-.063,3.678,3.678,0,0,1-2.95-3.6c0-.017,0-.032,0-.047a3.647,3.647,0,0,0,1.663.459A3.678,3.678,0,0,1,8.484,9.523a10.426,10.426,0,0,0,7.57,3.837,3.678,3.678,0,0,1,6.263-3.349,7.365,7.365,0,0,0,2.332-.895,3.687,3.687,0,0,1-1.615,2.031,7.324,7.324,0,0,0,2.108-.579A7.463,7.463,0,0,1,23.3,12.475Zm0,0" transform="translate(0.001)" fill="#fff"/>
</svg>
