<svg xmlns="http://www.w3.org/2000/svg" xmlns:xlink="http://www.w3.org/1999/xlink" width="58.498" height="58.5" viewBox="0 0 58.498 58.5">
  <defs>
    <filter id="Subtraction_10" x="0" y="0" width="58.498" height="58.5" filterUnits="userSpaceOnUse">
      <feOffset dy="2" input="SourceAlpha"/>
      <feGaussianBlur stdDeviation="1.5" result="blur"/>
      <feFlood flood-opacity="0.102"/>
      <feComposite operator="in" in2="blur"/>
      <feComposite in="SourceGraphic"/>
    </filter>
  </defs>
  <g transform="matrix(1, 0, 0, 1, 0, 0)" filter="url(#Subtraction_10)">
    <path id="Subtraction_10-2" data-name="Subtraction 10" d="M-8603.459,42.3a4.988,4.988,0,0,0-3.61-1.649,5.162,5.162,0,0,0-3.658,1.639l-3.376,3.352c-.278-.149-.557-.287-.824-.426-.384-.192-.747-.372-1.057-.564a36.593,36.593,0,0,1-8.8-7.981,21.541,21.541,0,0,1-2.888-4.533c.879-.8,1.688-1.628,2.481-2.426.3-.3.6-.607.9-.9a4.871,4.871,0,0,0,0-7.363l-2.916-2.9c-.334-.33-.674-.67-1-1.011-.641-.66-1.312-1.341-2.008-1.979a5.065,5.065,0,0,0-3.58-1.564,5.25,5.25,0,0,0-3.634,1.564.083.083,0,0,1-.021.021l-3.634,3.65a7.771,7.771,0,0,0-2.321,4.948,18.562,18.562,0,0,0,1.371,7.9,45.733,45.733,0,0,0,8.172,13.578A50.3,50.3,0,0,0-8617.106,58.7a26.166,26.166,0,0,0,9.4,2.767c.223.011.462.021.673.021a8.067,8.067,0,0,0,6.167-2.639c.012-.021.032-.032.044-.053a24.635,24.635,0,0,1,1.869-1.926c.458-.436.931-.894,1.391-1.373a5.3,5.3,0,0,0,1.614-3.682,5.108,5.108,0,0,0-1.646-3.65Zm3.826,11.2c-.013,0-.013.011,0,0-.417.447-.844.851-1.3,1.3A28.234,28.234,0,0,0-8603,56.935a5.153,5.153,0,0,1-4.017,1.692c-.159,0-.334,0-.493-.011a23.27,23.27,0,0,1-8.337-2.49,47.472,47.472,0,0,1-15.775-12.3,43.19,43.19,0,0,1-7.7-12.758,15.131,15.131,0,0,1-1.2-6.661,4.88,4.88,0,0,1,1.475-3.16l3.646-3.628a2.431,2.431,0,0,1,1.623-.755,2.276,2.276,0,0,1,1.56.745.336.336,0,0,1,.032.032c.652.607,1.272,1.234,1.927,1.9.331.341.672.681,1.015,1.032l2.919,2.9a2.026,2.026,0,0,1,0,3.3c-.311.309-.612.617-.919.915-.9.915-1.753,1.766-2.684,2.6a.293.293,0,0,0-.056.053,2.166,2.166,0,0,0-.557,2.415c.013.032.023.064.033.1a23.3,23.3,0,0,0,3.454,5.608l.009.011a39.16,39.16,0,0,0,9.491,8.6c.44.277.891.5,1.315.713.384.192.751.372,1.059.564.043.021.086.053.13.074a2.316,2.316,0,0,0,1.056.266,2.291,2.291,0,0,0,1.625-.734l3.655-3.639a2.428,2.428,0,0,1,1.613-.8,2.177,2.177,0,0,1,1.54.777l.022.021,5.886,5.863A2.1,2.1,0,0,1-8599.633,53.509Z" transform="translate(8648.94 -10.49)" fill="#ffa000" stroke="#ffa000" stroke-width="2"/>
  </g>
</svg>
